<?xml version="1.0" encoding="utf-8"?>
<!-- Generator: Adobe Illustrator 24.1.1, SVG Export Plug-In . SVG Version: 6.00 Build 0)  -->
<svg version="1.1" id="Layer_1" xmlns="http://www.w3.org/2000/svg" xmlns:xlink="http://www.w3.org/1999/xlink" x="0px" y="0px"
	 viewBox="0 0 700 700" style="enable-background:new 0 0 700 700;" xml:space="preserve">
<style type="text/css">
	.st0{fill:#f6ae2d;}
</style>
<g>
	<path class="st0" d="M461.6,382.8c4.1,4.4,3.9,11.1-0.4,15.3c-4.3,4.1-11.2,4-15.4-0.2c-1.9-1.9-19.1-17.8-47.9,1.5
		c-1.9,1.3-4,1.9-6.1,1.9c-3.5,0-7-1.7-9.1-4.8c-3.4-5-2-11.8,3-15.1C421.8,357,451.1,371.6,461.6,382.8L461.6,382.8z"/>
	<path class="st0" d="M314.3,381.2c5,3.4,6.3,10.1,3,15.1c-2.1,3.2-5.6,4.8-9.1,4.8c-2.1,0-4.2-0.6-6.1-1.9
		c-28.7-19.3-45.9-3.4-47.9-1.5c-4.1,4.3-11,4.5-15.3,0.4c-4.4-4.1-4.6-11-0.5-15.4C248.9,371.6,278.3,357,314.3,381.2L314.3,381.2z
		"/>
	<path class="st0" d="M254.5,510.6c26.8,35.8,60.1,59.6,95.5,59.6c76.8,0,143.5-111.2,155.9-215.2c-21.2-6.5-120.1,12.9-232.4-88.9
		c0,0-31.2,52.6-81.1,70.4c2.2,39.2,12.8,80.3,29.1,117c-16.9-8.3-32.1-17.3-44.6-25.6c0-0.1-1.9-6.5-2.8-9.5
		c-9.6-32.2-14.9-65.5-14.9-97.2c0-114.4,69.6-180,190.9-180s190.9,65.6,190.9,180c0,34.7-6.5,71.3-17.8,106.3
		c1.9,30.3,8,95.6,26.9,148.2c0,0-47-0.2-108.9-12.3C414.1,587.9,383,603,350,603c-33,0-64-15.1-91.1-39.6
		C197,575.5,150,575.7,150,575.7c12.1-33.9,18.9-72.8,22.8-104.4C194.8,485.2,222.9,500.2,254.5,510.6L254.5,510.6z"/>
	<path class="st0" d="M584.1,272.1C568.9,172,471.7,97,350,97c-121.7,0-218.9,75-234.1,175c-20.2,8.1-42.4,29.9-36.4,87.3
		c6.6,63.1,37.6,74.2,60.3,75.9c26.5,20.7,93.8,67.4,170.6,76.5c2.5,7.9,9.6,13.8,18.2,13.8h29.5c10.7,0,19.4-8.7,19.4-19.4
		c0-10.7-8.7-19.4-19.4-19.4h-29.5c-6.6,0-12.2,3.5-15.7,8.6c-71.2-8.2-135.6-52-161.7-72.1c-3.1-25.1-9.8-84-9.2-123.9
		c0-97.6,91.4-174.1,208.1-174.1c116.7,0,208.1,76.4,208.1,174.1c0.7,51.8-10.8,136.1-10.8,136.1c21.4,0.4,65.3,0.3,73.2-76.1
		C626.5,301.9,604.3,280.2,584.1,272.1L584.1,272.1z"/>
</g>
</svg>
