<?xml version="1.0" encoding="utf-8"?>
<!-- Generator: Adobe Illustrator 24.1.1, SVG Export Plug-In . SVG Version: 6.00 Build 0)  -->
<svg version="1.1" id="Layer_1" xmlns="http://www.w3.org/2000/svg" xmlns:xlink="http://www.w3.org/1999/xlink" x="0px" y="0px"
	 viewBox="0 0 300 300" style="enable-background:new 0 0 300 300;" xml:space="preserve">
<style type="text/css">
	.st0{fill:#F5AE2B;}
</style>
<g>
	<g>
		<path class="st0" d="M222.4,110.6v35.3h-44.6l-22.4-38.8V75.8h32.1C206.8,75.8,222.4,91.3,222.4,110.6z"/>
		<path class="st0" d="M145.5,184.8v38h-32.1c-19.3,0-34.8-15.6-34.8-34.8V159h51v16.4c0,5.1,4.2,9.3,9.3,9.3H145.5z"/>
		<path class="st0" d="M144.5,75.9v31.2l-22.5,39H77.6v-35.3c0-19.2,15.6-34.8,34.8-34.8H144.5z"/>
		<path class="st0" d="M222.1,160.5v28.9c0,19.3-15.6,34.8-34.8,34.8h-32.1v-39.5h6c5.1,0,9.3-4.2,9.3-9.3v-14.9H222.1z"/>
	</g>
</g>
</svg>
