<?xml version="1.0" encoding="utf-8"?>
<!-- Generator: Adobe Illustrator 24.1.1, SVG Export Plug-In . SVG Version: 6.00 Build 0)  -->
<svg version="1.1" id="Layer_1" xmlns="http://www.w3.org/2000/svg" xmlns:xlink="http://www.w3.org/1999/xlink" x="0px" y="0px"
	 viewBox="0 0 300 77.2" style="enable-background:new 0 0 300 77.2;" xml:space="preserve">
<style type="text/css">
	.st0{fill:#585862;}
	.st1{fill:#f6ae2d;}
	.st2{font-family:'Jost-Regular';}
	.st3{font-size:16.8394px;}
</style>
<g>
	<path class="st0" d="M38.2,18.6v44H28v-44H38.2z M35,18.6h19.7v9.1H35V18.6z M35,36.4h19V45H35V36.4z"/>
	<path class="st0" d="M106.2,62.6h-9.4V33.7h9.4V62.6z M113,42.3c-0.6-0.3-1.3-0.4-2.1-0.4c-0.9,0-1.7,0.3-2.4,0.8
		c-0.7,0.5-1.3,1.2-1.6,2.2c-0.4,1-0.6,2.1-0.6,3.5L104,45c0-2.3,0.4-4.4,1.4-6.2c0.9-1.8,2.1-3.2,3.5-4.3c1.5-1,3-1.6,4.6-1.6
		c1,0,2.1,0.2,3,0.6c1,0.4,1.7,1,2.2,1.8l-4.1,8.1C114.1,43,113.6,42.6,113,42.3z"/>
	<path class="st0" d="M138.6,33.7v7.8h-19.3v-7.8H138.6z M133.5,23.7v38.9h-9.1V23.7H133.5z"/>
	<path class="st0" d="M148.7,61.4c-2.4-1.2-4.3-3-5.7-5.2c-1.3-2.3-2-4.9-2-8c0-3.1,0.6-5.8,1.9-8c1.3-2.3,3.2-4,5.6-5.2
		c2.4-1.2,5.3-1.8,8.7-1.8c3.3,0,6.2,0.6,8.5,1.7c2.3,1.2,4.1,2.8,5.3,5c1.2,2.2,1.8,4.8,1.8,7.9c0,0.5,0,0.9,0,1.4
		c0,0.4,0,0.8-0.1,1.1h-26.4v-5.3h17.8l-2.3,2.9c0.2-0.3,0.4-0.7,0.5-1.1c0.1-0.4,0.2-0.8,0.2-1.1c0-1.3-0.2-2.3-0.7-3.3
		c-0.5-0.9-1.1-1.6-1.9-2.1c-0.8-0.5-1.8-0.8-3-0.8c-1.4,0-2.6,0.3-3.6,0.9c-1,0.6-1.7,1.6-2.2,2.9c-0.5,1.3-0.7,2.9-0.8,4.8
		c0,1.8,0.3,3.3,0.8,4.5c0.5,1.3,1.3,2.2,2.3,2.9c1,0.6,2.2,1,3.7,1c1.7,0,3.1-0.3,4.3-0.9s2.1-1.6,2.9-2.8l8.5,2.1
		c-1.5,2.8-3.5,5-6.1,6.4c-2.6,1.4-5.7,2.1-9.4,2.1C154,63.2,151.1,62.6,148.7,61.4z"/>
	<path class="st0" d="M177.6,42.3v-8.6h28.3L191.4,54h12.4v8.6h-28.9l15.2-20.3H177.6z"/>
	<path class="st0" d="M212.2,42.3v-8.6h28.3L226.1,54h12.4v8.6h-28.9l15.2-20.3H212.2z"/>
	<path class="st0" d="M253.1,55.5c0.4,0.5,0.9,0.9,1.5,1.2c0.6,0.3,1.3,0.4,2.1,0.4c1.1,0,2.1-0.2,3-0.7c0.9-0.5,1.7-1.2,2.3-2.1
		c0.6-0.9,0.9-2.1,0.9-3.4l1,3.8c0,1.8-0.5,3.4-1.5,4.7c-1,1.3-2.3,2.2-3.9,2.9c-1.6,0.6-3.3,1-5.1,1c-1.8,0-3.5-0.3-5.1-1
		c-1.6-0.7-2.8-1.7-3.8-3.1c-0.9-1.4-1.4-3.1-1.4-5c0-2.8,1-5,3-6.6c2-1.6,4.8-2.4,8.4-2.4c1.8,0,3.3,0.2,4.7,0.5
		c1.4,0.3,2.6,0.8,3.6,1.3c1,0.5,1.8,1,2.3,1.6v4.2c-1-0.8-2.2-1.3-3.5-1.7c-1.3-0.4-2.7-0.6-4.2-0.6c-1.1,0-2,0.1-2.7,0.4
		c-0.7,0.3-1.2,0.6-1.5,1.1c-0.3,0.5-0.5,1.1-0.5,1.8C252.5,54.3,252.7,55,253.1,55.5z M245.1,36.2c1.6-0.8,3.6-1.5,5.9-2.3
		c2.3-0.7,4.8-1.1,7.5-1.1c2.6,0,4.8,0.4,6.8,1.1c2,0.7,3.6,1.8,4.8,3.2c1.2,1.4,1.8,3.1,1.8,5.1v20.3h-9.1V44.4
		c0-0.7-0.1-1.3-0.3-1.9c-0.2-0.5-0.6-1-1-1.4c-0.5-0.4-1-0.6-1.7-0.8c-0.7-0.2-1.5-0.3-2.4-0.3c-1.3,0-2.6,0.1-3.8,0.4
		c-1.2,0.3-2.3,0.6-3.2,1c-0.9,0.4-1.6,0.7-2,1L245.1,36.2z"/>
	<text transform="matrix(1 0 0 1 222.1704 27.755)" class="st1 st2 st3">Homes</text>
	<g>
		<g>
			<path class="st1" d="M89,40.2v7.3h-9.3l-4.6-8v-6.5h6.7C85.8,32.9,89,36.2,89,40.2z"/>
			<path class="st1" d="M73,55.5v7.9h-6.7c-4,0-7.2-3.2-7.2-7.2v-6h10.7c0,0.2-0.1,0.4-0.1,0.7v0.8C69.7,53.7,71.2,55.3,73,55.5z"/>
			<path class="st1" d="M72.8,33v6.5l-4.7,8.1h-9.2v-7.3c0-4,3.2-7.2,7.2-7.2H72.8z"/>
			<path class="st1" d="M88.9,50.5v6c0,4-3.2,7.2-7.2,7.2H75v-8.3c1.8-0.3,3.2-1.9,3.2-3.8v-0.8c0-0.1,0-0.2,0-0.4H88.9z"/>
		</g>
	</g>
</g>
</svg>
