<?xml version="1.0" encoding="utf-8"?>
<!-- Generator: Adobe Illustrator 24.1.1, SVG Export Plug-In . SVG Version: 6.00 Build 0)  -->
<svg version="1.1" id="Layer_1" xmlns="http://www.w3.org/2000/svg" xmlns:xlink="http://www.w3.org/1999/xlink" x="0px" y="0px"
	 viewBox="0 0 800 216" style="enable-background:new 0 0 800 216;" xml:space="preserve">
<style type="text/css">
	.st0{fill:#658381;}
	.st1{font-family:'Jost-Regular';}
	.st2{font-size:58.5634px;}
	.st3{fill:#585862;}
	.st4{fill:#F5AE2B;}
	.st5{fill:#FFFFFF;}
</style>
<g>
	<text transform="matrix(1 0 0 1 553.683 79.2622)" class="st0 st1 st2">Homes</text>
	<path class="st3" d="M83.9,40.1v138.7H73V40.1H83.9z M78.8,40.1h60.8v10.3H78.8V40.1z M78.8,98.6h58.9v10.3H78.8V98.6z"/>
	<path class="st3" d="M280.5,178.8h-10.3V87.7h10.3V178.8z M305.2,96.5c-1.8-0.7-3.9-1.1-6.2-1.1c-4.5,0-8.1,1.3-10.8,3.8
		c-2.7,2.5-4.7,5.9-5.8,10.1c-1.2,4.2-1.8,8.9-1.8,14.1h-4.8c0-7.3,1.1-13.7,3.4-19.3c2.2-5.6,5.3-10.1,9.2-13.4c3.9-3.3,8.2-5,13-5
		c2.9,0,5.6,0.4,8.2,1.3c2.6,0.9,4.9,2.3,7,4.3l-5.7,8.5C308.8,98.3,307,97.2,305.2,96.5z"/>
	<path class="st3" d="M360.2,87.7v9.7h-40v-9.7H360.2z M345.3,56v122.9H335V56H345.3z"/>
	<path class="st3" d="M390.1,174.7c-6.3-4.1-11.3-9.7-15-16.9c-3.6-7.2-5.4-15.4-5.4-24.7c0-9.2,1.8-17.4,5.5-24.6
		c3.7-7.1,8.8-12.7,15.5-16.7c6.6-4,14.2-6,22.8-6c8.3,0,15.6,1.9,21.9,5.7c6.3,3.8,11.2,9.1,14.7,16c3.5,6.8,5.3,14.6,5.3,23.5
		c0,0.8,0,1.7-0.1,2.6c-0.1,0.9-0.2,1.7-0.3,2.4h-78.7v-8.9h70.9l-4.4,6.1c0.3-0.7,0.6-1.6,0.9-2.7c0.3-1.1,0.5-2.2,0.5-3.3
		c0-6.2-1.4-11.8-4.1-16.6c-2.7-4.9-6.4-8.7-11-11.5c-4.6-2.8-9.8-4.2-15.7-4.2c-6.7,0-12.6,1.6-17.5,4.7c-5,3.1-8.8,7.5-11.6,13.1
		c-2.8,5.6-4.2,12.3-4.2,19.9c0,7.8,1.4,14.6,4.1,20.4c2.7,5.8,6.5,10.3,11.5,13.5c5,3.2,10.7,4.8,17.3,4.8c7,0,13.1-1.5,18.3-4.6
		c5.2-3,9.9-7.8,14-14.3l8.3,5.4c-5.2,7.9-11.1,13.8-17.9,17.5c-6.8,3.8-14.8,5.6-23.9,5.6C403.7,180.8,396.4,178.8,390.1,174.7z"/>
	<path class="st3" d="M468.6,97.4v-9.7h76.1l-62.4,81.4h60.8v9.7h-79.7l62.4-81.4H468.6z"/>
	<path class="st3" d="M563.3,97.4v-9.7h76.1L577,169.1h60.8v9.7h-79.7l62.4-81.4H563.3z"/>
	<path class="st3" d="M663.8,162.8c2,3,4.8,5.3,8.3,6.8c3.5,1.5,7.4,2.3,11.6,2.3c5.2,0,9.9-1.2,14.2-3.6c4.3-2.4,7.8-5.9,10.4-10.5
		c2.6-4.6,4-10.3,4-17l2.4,8.7c0,7.1-1.7,13-5.2,17.6c-3.4,4.6-7.7,8.1-12.9,10.3s-10.4,3.4-15.7,3.4c-5.2,0-10.1-1.1-14.9-3.3
		c-4.8-2.2-8.6-5.4-11.5-9.6c-2.9-4.2-4.4-9.6-4.4-16.1c0-8.8,3.1-15.9,9.2-21c6.1-5.2,14.5-7.7,25.1-7.7c5.9,0,11.1,0.7,15.4,2.1
		c4.3,1.4,7.8,2.9,10.6,4.7c2.8,1.7,4.8,3.2,5.9,4.4v6.5c-4.5-3.2-9.3-5.5-14.4-7c-5.1-1.5-10.4-2.3-16-2.3c-5.2,0-9.6,0.7-13.4,2.2
		c-3.8,1.5-6.7,3.6-8.8,6.5c-2.1,2.9-3.2,6.7-3.2,11.3C660.8,156,661.8,159.7,663.8,162.8z M656,96.6c3.4-2.4,7.9-4.8,13.4-7.2
		c5.5-2.4,12.3-3.7,20.3-3.7c6.9,0,12.7,1.1,17.6,3.4c4.9,2.2,8.7,5.5,11.3,9.7c2.6,4.2,4,9.4,4,15.5v64.6h-10.3v-63.2
		c0-2.6-0.4-5.2-1.2-7.6c-0.8-2.4-2.1-4.7-3.9-6.6c-1.8-2-4.2-3.6-7.2-4.8c-3-1.2-6.7-1.8-11.1-1.8c-4.5,0-8.5,0.5-12.1,1.6
		c-3.6,1.1-6.6,2.3-9.2,3.8c-2.6,1.5-4.7,2.8-6.4,4.2L656,96.6z"/>
	<g>
		<g>
			<path class="st4" d="M250.2,108.6v23h-43.5V85.9h20.9C240.1,85.9,250.2,96.1,250.2,108.6z"/>
			<path class="st4" d="M200.2,140.1v41.5h-20.9c-12.5,0-22.7-10.2-22.7-22.7v-18.8H200.2z"/>
			<path class="st4" d="M199.6,86v45.6H156v-23c0-12.5,10.2-22.7,22.7-22.7H199.6z"/>
			<path class="st4" d="M250,141.1v18.8c0,12.5-10.2,22.7-22.7,22.7h-20.9v-41.5H250z"/>
		</g>
		<g>
			<path class="st5" d="M207.1,156.8h-8c-5.1,0-9.3-4.2-9.3-9.3v-8c0-5.1,4.2-9.3,9.3-9.3h8c5.1,0,9.3,4.2,9.3,9.3v8
				C216.4,152.7,212.2,156.8,207.1,156.8z"/>
			<polygon class="st5" points="203.1,100.2 225.6,139.2 180.6,139.2 			"/>
		</g>
	</g>
</g>
</svg>
